<svg xmlns="http://www.w3.org/2000/svg" viewBox="0 0 16 16"><path fill="COLOR" d="M8 5.5A2.5 2.5 0 1 0 8 10.5 2.5 2.5 0 0 0 8 5.5Zm0 1.5a1 1 0 1 1 0 2 1 1 0 0 1 0-2Z"/><path fill="COLOR" d="M6.94 1.5a.9.9 0 0 0-.87.68l-.24.98a4.6 4.6 0 0 0-1.02.59l-.96-.32a.9.9 0 0 0-1.06.42l-1.06 1.84a.9.9 0 0 0 .19 1.12l.74.66a4.6 4.6 0 0 0 0 1.18l-.74.66a.9.9 0 0 0-.19 1.12l1.06 1.84a.9.9 0 0 0 1.06.42l.96-.32c.32.24.66.44 1.02.59l.24.98a.9.9 0 0 0 .87.68h2.12a.9.9 0 0 0 .87-.68l.24-.98c.36-.15.7-.35 1.02-.59l.96.32a.9.9 0 0 0 1.06-.42l1.06-1.84a.9.9 0 0 0-.19-1.12l-.74-.66a4.6 4.6 0 0 0 0-1.18l.74-.66a.9.9 0 0 0 .19-1.12l-1.06-1.84a.9.9 0 0 0-1.06-.42l-.96.32a4.6 4.6 0 0 0-1.02-.59l-.24-.98a.9.9 0 0 0-.87-.68H6.94Zm.62 1.5h.88l.32 1.32.5.18c.4.15.78.37 1.1.65l.42.35 1.28-.43.44.76-1 .9.06.53c.05.42.05.85 0 1.27l-.06.53 1 .9-.44.76-1.28-.43-.42.35c-.32.28-.7.5-1.1.65l-.5.18-.32 1.32h-.88l-.32-1.32-.5-.18a3.1 3.1 0 0 1-1.1-.65l-.42-.35-1.28.43-.44-.76 1-.9-.06-.53a3.1 3.1 0 0 1 0-1.27l.06-.53-1-.9.44-.76 1.28.43.42-.35c.32-.28.7-.5 1.1-.65l.5-.18L7.56 3Z"/></svg>
